<svg width="843" height="169" viewBox="0 0 843 169" fill="none" xmlns="http://www.w3.org/2000/svg">
<mask id="mask0_1305_106" style="mask-type:alpha" maskUnits="userSpaceOnUse" x="0" y="0" width="844" height="169">
<path d="M337.201 168.6L259.782 84.3L332.726 0H301.4L239.196 71.735V0H214.583V168.6H239.196V97.1316L303.638 168.6H337.201Z" fill="#E5E5E5"/>
<path d="M367.853 168.6L418.944 53.6658L470.831 168.6H495.58L419.161 0L342.308 168.6H367.853Z" fill="#E5E5E5"/>
<path d="M629.573 126.029C618.685 137.244 603.442 144.232 586.57 144.232C553.466 144.232 526.621 117.394 526.621 84.3C526.621 51.2057 553.466 24.368 586.57 24.368C603.332 24.368 618.484 31.2466 629.354 42.3329L640.169 19.209C625.602 7.20794 606.919 0 586.57 0C539.998 0 502.246 37.7411 502.246 84.3C502.246 130.859 539.998 168.6 586.57 168.6C607.028 168.6 625.785 161.319 640.388 149.19L629.573 126.029Z" fill="#E5E5E5"/>
<path d="M781.095 126.029C770.207 137.244 754.963 144.232 738.091 144.232C704.988 144.232 678.142 117.394 678.142 84.3C678.142 51.2057 704.988 24.368 738.091 24.368C754.853 24.368 770.005 31.2466 780.875 42.3329L791.69 19.209C777.124 7.20794 758.44 0 738.091 0C691.519 0 653.768 37.7411 653.768 84.3C653.768 130.859 691.519 168.6 738.091 168.6C758.55 168.6 777.307 161.319 791.91 149.19L781.095 126.029Z" fill="#E5E5E5"/>
<path d="M153.272 168.6V0H178.817V168.6H153.272Z" fill="#E5E5E5"/>
<path d="M817.456 168.6V0H843.001V168.6H817.456Z" fill="#E5E5E5"/>
<path d="M109.481 40.1651C107.479 37.8299 104.168 35.4169 99.5487 32.926C95.0833 30.2795 89.8479 28.0222 83.8427 26.154C77.8374 24.2859 71.6012 23.3518 65.134 23.3518C54.2013 23.3518 46.1173 25.3756 40.882 29.4233C35.8006 33.4709 33.2599 39.0754 33.2599 46.2366C33.2599 51.5297 34.7227 55.733 37.6484 58.8465C40.574 61.8044 45.0394 64.3731 51.0447 66.5526C57.05 68.5765 64.595 70.6781 73.6799 72.8576C84.7666 75.5042 94.3134 78.6956 102.32 82.4319C110.481 86.0125 116.718 90.8385 121.029 96.91C125.495 102.981 127.727 110.999 127.727 120.962C127.727 132.327 125.033 141.512 119.643 148.517C114.254 155.523 106.94 160.66 97.701 163.93C88.6161 167.043 78.6073 168.6 67.6747 168.6C55.2022 168.6 43.1147 166.654 31.4121 162.762C19.7096 158.87 9.23886 153.344 0 146.182L11.7795 123.765C14.3972 126.411 18.5547 129.447 24.252 132.872C29.9493 136.141 36.5705 139.021 44.1156 141.512C51.8146 143.847 59.8216 145.015 68.1366 145.015C78.2994 145.015 86.1524 143.224 91.6957 139.644C97.239 135.908 100.011 130.614 100.011 123.765C100.011 118.16 98.1629 113.723 94.4674 110.454C90.9258 107.029 85.7674 104.227 78.9923 102.047C72.3711 99.7122 64.3641 97.2992 54.9712 94.8083C44.1926 92.0061 35.1847 88.8147 27.9476 85.2341C20.7104 81.6535 15.2441 77.1388 11.5486 71.69C8.00701 66.2413 6.23623 59.1579 6.23623 50.4399C6.23623 39.5424 8.85391 30.3573 14.0893 22.8848C19.3246 15.2565 26.4077 9.57424 35.3386 5.83795C44.4235 1.94598 54.5863 0 65.8269 0C76.9135 0 87.1533 1.79031 96.5461 5.37092C105.939 8.95153 114.177 13.3884 121.26 18.6814L109.481 40.1651Z" fill="#E5E5E5"/>
<path d="M337.201 168.6L259.782 84.3L332.726 0H301.4L239.196 71.735V0H214.583V168.6H239.196V97.1316L303.638 168.6H337.201Z" fill="white"/>
<path d="M367.853 168.6L418.944 53.6658L470.831 168.6H495.58L419.161 0L342.308 168.6H367.853Z" fill="white"/>
<path d="M629.573 126.029C618.685 137.244 603.442 144.232 586.57 144.232C553.466 144.232 526.621 117.394 526.621 84.3C526.621 51.2057 553.466 24.368 586.57 24.368C603.332 24.368 618.484 31.2466 629.354 42.3329L640.169 19.209C625.602 7.20794 606.919 0 586.57 0C539.998 0 502.246 37.7411 502.246 84.3C502.246 130.859 539.998 168.6 586.57 168.6C607.028 168.6 625.785 161.319 640.388 149.19L629.573 126.029Z" fill="white"/>
<path d="M781.095 126.029C770.207 137.244 754.963 144.232 738.091 144.232C704.988 144.232 678.142 117.394 678.142 84.3C678.142 51.2057 704.988 24.368 738.091 24.368C754.853 24.368 770.005 31.2466 780.875 42.3329L791.69 19.209C777.124 7.20794 758.44 0 738.091 0C691.519 0 653.768 37.7411 653.768 84.3C653.768 130.859 691.519 168.6 738.091 168.6C758.55 168.6 777.307 161.319 791.91 149.19L781.095 126.029Z" fill="white"/>
<path d="M153.272 168.6V0H178.817V168.6H153.272Z" fill="white"/>
<path d="M817.456 168.6V0H843.001V168.6H817.456Z" fill="white"/>
<path d="M109.481 40.1651C107.479 37.8299 104.168 35.4169 99.5487 32.926C95.0833 30.2795 89.8479 28.0222 83.8427 26.154C77.8374 24.2859 71.6012 23.3518 65.134 23.3518C54.2013 23.3518 46.1173 25.3756 40.882 29.4233C35.8006 33.4709 33.2599 39.0754 33.2599 46.2366C33.2599 51.5297 34.7227 55.733 37.6484 58.8465C40.574 61.8044 45.0394 64.3731 51.0447 66.5526C57.05 68.5765 64.595 70.6781 73.6799 72.8576C84.7666 75.5042 94.3134 78.6956 102.32 82.4319C110.481 86.0125 116.718 90.8385 121.029 96.91C125.495 102.981 127.727 110.999 127.727 120.962C127.727 132.327 125.033 141.512 119.643 148.517C114.254 155.523 106.94 160.66 97.701 163.93C88.6161 167.043 78.6073 168.6 67.6747 168.6C55.2022 168.6 43.1147 166.654 31.4121 162.762C19.7096 158.87 9.23886 153.344 0 146.182L11.7795 123.765C14.3972 126.411 18.5547 129.447 24.252 132.872C29.9493 136.141 36.5705 139.021 44.1156 141.512C51.8146 143.847 59.8216 145.015 68.1366 145.015C78.2994 145.015 86.1524 143.224 91.6957 139.644C97.239 135.908 100.011 130.614 100.011 123.765C100.011 118.16 98.1629 113.723 94.4674 110.454C90.9258 107.029 85.7674 104.227 78.9923 102.047C72.3711 99.7122 64.3641 97.2992 54.9712 94.8083C44.1926 92.0061 35.1847 88.8147 27.9476 85.2341C20.7104 81.6535 15.2441 77.1388 11.5486 71.69C8.00701 66.2413 6.23623 59.1579 6.23623 50.4399C6.23623 39.5424 8.85391 30.3573 14.0893 22.8848C19.3246 15.2565 26.4077 9.57424 35.3386 5.83795C44.4235 1.94598 54.5863 0 65.8269 0C76.9135 0 87.1533 1.79031 96.5461 5.37092C105.939 8.95153 114.177 13.3884 121.26 18.6814L109.481 40.1651Z" fill="white"/>
</mask>
<g mask="url(#mask0_1305_106)">
<rect width="843" height="171.043" fill="#EFDB94"/>
<rect width="843" height="171.043" fill="url(#paint0_linear_1305_106)"/>
</g>
<defs>
<linearGradient id="paint0_linear_1305_106" x1="-20.3483" y1="83.4359" x2="869.019" y2="99.6374" gradientUnits="userSpaceOnUse">
<stop stop-color="#F2DF97"/>
<stop offset="0.09375" stop-color="#F6E49A"/>
<stop offset="0.661458" stop-color="#B78D43"/>
<stop offset="0.942708" stop-color="#D5B76D"/>
<stop offset="1" stop-color="#F6E49A"/>
</linearGradient>
</defs>
</svg>
